<?xml version="1.0" encoding="UTF-8"?>
<svg width="382px" height="79px" viewBox="0 0 382 79" version="1.1" xmlns="http://www.w3.org/2000/svg" xmlns:xlink="http://www.w3.org/1999/xlink">
    <!-- Generator: Sketch 43.2 (39069) - http://www.bohemiancoding.com/sketch -->
    <title>full_logo</title>
    <desc>Created with Sketch.</desc>
    <defs></defs>
    <g id="Page-1" stroke="none" stroke-width="1" fill="none" fill-rule="evenodd">
        <g id="full_logo" transform="translate(-1.000000, 0.000000)" fill-rule="nonzero" fill="#FFFFFF">
            <g id="Logotype" transform="translate(0.480016, 0.218883)">
                <path d="M24.1209392,0.563527739 L37.2174835,0.563527739 C37.4010799,1.32573104 41.6571786,15.4849091 49.9857796,43.0521891 L52.3224613,43.0521891 L52.3224613,68.6444167 L46.94253,68.6444167 L46.94253,70.6528502 L52.3224613,70.6528502 L52.3224613,76.1384885 L37.8684162,76.1384885 L37.8684162,60.382578 L20.1541439,60.382578 L20.1541439,67.0643748 L12.9827566,67.0643748 L12.9827566,78.3638996 L0.870956758,78.3638996 L0.870956758,67.0643748 L6.25088808,67.0643748 L6.25088808,45.2776002 L10.7072738,45.2776002 L24.1209392,0.563527739 Z M30.2630738,22.4560094 L30.2630738,22.6173517 C29.1392412,28.7761769 26.9694654,38.517914 23.7426193,51.8481264 L35.9100545,51.8481264 L35.9100545,43.0466256 L34.8808018,43.0466256 C31.9822039,30.4396717 30.5356867,23.579842 30.5356867,22.4560094 L30.2630738,22.4560094 L30.2630738,22.4560094 Z M7.06316313,41.3664402 L8.2593216,41.3664402 C8.2593216,41.6946883 8.4206639,41.9617376 8.74891204,42.1787152 C8.78785673,41.8504671 8.96588962,41.5834178 9.29413775,41.3664402 L10.2176834,41.3664402 L10.2176834,41.4777107 C9.60013178,42.3456211 9.29413775,42.8352115 9.29413775,42.9464821 C9.43878948,43.2747302 9.7837282,43.7977018 10.3289539,44.5209604 L10.3289539,44.7935733 L9.83379995,44.7935733 C9.32751892,44.7935733 8.96588962,44.431944 8.74891204,43.7086854 C8.20368632,44.431944 7.89769229,44.7935733 7.82536643,44.7935733 L7.16887016,44.7935733 C6.98527374,44.7935733 6.8962573,44.7045568 6.8962573,44.5209604 C7.00752785,44.5209604 7.36915716,44.03137 7.98114521,43.0521891 L7.98114521,42.8352115 C7.36915716,41.9283565 7.06316313,41.438766 7.06316313,41.3664402 L7.06316313,41.3664402 Z M0.681796815,42.9409185 L6.24532455,42.9409185 L6.24532455,45.2776002 L0.681796815,45.2776002 L0.681796815,42.9409185 Z M52.7007812,44.6266674 L55.471418,44.6266674 L55.471418,45.2776002 L53.7856691,47.3973042 L55.3601474,47.3973042 C55.5047992,47.4362489 55.577125,47.5252654 55.577125,47.6699171 L55.577125,47.94253 C55.577125,48.1261264 55.5047992,48.2151428 55.3601474,48.2151428 L52.5895106,48.2151428 L52.5895106,47.5642101 L54.2752595,45.444506 L52.7007812,45.444506 L52.7007812,44.6266674 L52.7007812,44.6266674 Z M32.6498272,48.048237 L33.4120305,48.048237 L33.4120305,49.3501025 L34.8808018,48.048237 L35.6430051,48.048237 L35.6430051,48.2095793 L34.5024819,49.5114448 C35.3703923,50.7409844 35.8043474,51.4308619 35.8043474,51.5755136 L34.9865089,51.5755136 C34.914183,51.5755136 34.513609,51.1026137 33.7903504,50.1623775 C33.6790798,50.1623775 33.5566822,50.2903387 33.4120305,50.5406974 L33.4120305,51.5755136 L32.6498272,51.5755136 L32.6498272,48.048237 L32.6498272,48.048237 Z M52.973394,49.2443955 L54.5478724,49.2443955 C55.3434569,49.355666 55.7440308,49.7506765 55.7440308,50.4405539 L55.365711,51.0914867 C55.6216332,51.3807901 55.7440308,51.9037617 55.7440308,52.665965 L55.7440308,52.7772356 L54.9261923,52.7772356 C54.8538664,51.9093252 54.7259053,51.4753701 54.5478724,51.4753701 L53.6243268,51.4753701 L53.6243268,52.7772356 L52.973394,52.7772356 C52.7897976,52.7772356 52.7007812,52.6882191 52.7007812,52.5046227 L52.7007812,49.5170083 C52.7341623,49.3334119 52.8287423,49.2443955 52.973394,49.2443955 L52.973394,49.2443955 Z M53.6243268,50.0065988 L53.6243268,50.8188738 L54.5478724,50.8188738 C54.7314688,50.8188738 54.8204852,50.7298574 54.8204852,50.5462609 L54.8204852,50.0010352 L53.6243268,50.0010352 L53.6243268,50.0065988 Z M52.7007812,53.8064882 L55.1988051,53.8064882 C55.3824015,53.8454329 55.471418,53.9344493 55.471418,54.0791011 L55.471418,54.3517139 C55.471418,54.5353103 55.3824015,54.6243268 55.1988051,54.6243268 L54.4366018,54.6243268 L54.4366018,57.3949636 L53.5130562,57.3949636 L53.5130562,54.6243268 L52.7007812,54.6243268 C52.5171848,54.6243268 52.4281683,54.5353103 52.4281683,54.3517139 L52.4281683,54.0791011 C52.4615495,53.9010682 52.5561295,53.8064882 52.7007812,53.8064882 Z M52.4281683,58.4242162 L53.0791011,58.4242162 C53.3350233,58.4242162 53.6020727,59.1641654 53.8913761,60.6496273 L54.0026467,60.6496273 C54.4366018,59.3477618 54.6535794,58.6022491 54.6535794,58.4242162 L55.577125,58.4242162 C54.8872476,60.7775885 54.4532924,61.9570563 54.2752595,61.9570563 L53.5130562,61.9570563 L52.4281683,58.4242162 Z M24.1209392,61.4118306 L24.1209392,62.1183986 C24.1209392,62.2630504 23.4143712,62.5523538 22.0012351,62.986309 L22.0012351,63.1476513 L24.1209392,63.9098546 L24.1209392,64.7221296 L20.8050766,63.5259712 L20.8050766,62.6024256 L24.1209392,61.4118306 Z M3.7473006,62.9918725 L4.18125576,62.9918725 C4.4705592,62.9918725 4.94345906,64.188031 5.59439181,66.5803479 L4.83218851,66.5803479 C4.83218851,66.508022 4.74317206,66.2354092 4.55957565,65.7680728 L3.36898071,65.7680728 C3.29665485,66.3132986 3.16869371,66.5803479 2.99066083,66.5803479 L2.33416455,66.5803479 C3.09636785,64.188031 3.56370418,62.9918725 3.7473006,62.9918725 Z M54.163989,62.9918725 L54.5423089,62.9918725 C55.4102192,62.9918725 55.9387543,63.6094241 56.1167872,64.8389637 C55.8608649,66.0685033 55.3045122,66.6860549 54.4310383,66.6860549 C53.2014987,66.4690773 52.5839471,65.8515258 52.5839471,64.8389637 C52.773107,63.6038606 53.2960786,62.9918725 54.163989,62.9918725 Z M53.5130562,64.7276932 L53.5130562,64.8389637 C53.5130562,65.3118636 53.7300338,65.6734929 54.163989,65.9238516 L54.5423089,65.9238516 C54.9818275,65.6679293 55.1988051,65.3063 55.1988051,64.8389637 L55.1988051,64.7276932 C55.1264793,64.0378157 54.8204852,63.692877 54.2752595,63.692877 C53.7689785,63.8764734 53.5130562,64.2214121 53.5130562,64.7276932 Z M3.9086429,64.188031 C3.72504649,64.7666378 3.63603004,65.0781954 3.63603004,65.1115766 L4.29252632,65.1115766 L4.01991346,64.188031 L3.9086429,64.188031 L3.9086429,64.188031 Z M37.8684162,77.0620342 L55.3601474,77.0620342 L55.3601474,78.3638996 L37.8684162,78.3638996 L37.8684162,77.0620342 Z M59.5606109,0.563527739 L74.5543181,0.563527739 L74.5543181,41.6946883 L67.4886379,41.6946883 L67.4886379,43.8700277 L74.5543181,43.8700277 L74.5543181,51.5866406 C74.5543181,58.6133762 75.8061119,62.7081326 78.3041358,63.8653464 C79.5726202,64.6609308 81.1470985,65.0615048 83.0331344,65.0615048 L87.6508624,65.0615048 L87.6508624,51.4252983 L91.7233647,51.4252983 L91.7233647,0.563527739 L106.611365,0.563527739 L106.611365,48.3764851 L101.231434,48.3764851 L101.231434,51.85369 L106.611365,51.85369 C106.539039,52.9775226 106.500094,53.8287423 106.500094,54.4073492 L106.500094,69.6736693 L98.6777744,69.6736693 L98.6777744,78.3694632 L63.905726,78.3694632 L63.905726,67.6096005 L60.7011341,67.6096005 L60.7011341,35.4468467 L59.5606109,35.4468467 L59.5606109,0.563527739 L59.5606109,0.563527739 Z M74.5543181,41.6946883 L83.0275709,41.6946883 L83.0275709,43.8700277 L74.5543181,43.8700277 L74.5543181,41.6946883 Z M117.05967,0.669234766 L140.749171,0.669234766 C150.602179,0.669234766 157.372992,4.01847847 161.067174,10.7225294 C164.255076,15.9411184 165.846245,24.592404 165.846245,36.6930769 L168.182926,36.6930769 L168.182926,55.2752595 L145.144358,55.2752595 L145.144358,53.1555555 L152.371381,53.1555555 L152.371381,36.6930769 L150.251677,36.6930769 L150.251677,29.9000095 C150.251677,22.2557224 148.549237,17.3876356 145.144358,15.2846221 C143.152615,14.1607895 139.948023,13.5988732 135.525019,13.5988732 L132.320427,13.5988732 L132.320427,36.3091935 L134.495766,36.3091935 L134.495766,55.269696 L118.956833,55.269696 L118.956833,37.7223295 L117.054107,37.7223295 L117.05967,0.669234766 L117.05967,0.669234766 Z M110.160896,55.2752595 L117.170941,55.2752595 L117.170941,57.7176482 L134.50133,57.7176482 L134.50133,62.8249667 L145.149922,62.8249667 L145.149922,57.7176482 L168.18849,57.7176482 L168.18849,62.8249667 L152.376944,62.8249667 L152.376944,76.6781507 L134.50133,76.6781507 L134.50133,78.3638996 L117.332283,78.3638996 C117.148687,78.3638996 117.05967,78.2748832 117.05967,78.0912868 L117.05967,57.7176482 L110.160896,57.7176482 L110.160896,55.2752595 L110.160896,55.2752595 Z M134.50133,55.2752595 L145.149922,55.2752595 L145.149922,57.7176482 L134.50133,57.7176482 L134.50133,55.2752595 Z M168.18849,55.2752595 L183.45481,55.2752595 L183.45481,57.7176482 L168.18849,57.7176482 L168.18849,55.2752595 L168.18849,55.2752595 Z M177.818956,0.507892462 L192.489979,0.507892462 C192.634631,0.546837156 192.706957,0.6358536 192.706957,0.780505321 L192.706957,38.5958034 C192.706957,38.7793998 192.634631,38.8684162 192.489979,38.8684162 L190.754158,38.8684162 L190.754158,78.0968503 C190.754158,78.2804467 190.665142,78.3694632 190.481546,78.3694632 L177.818956,78.3694632 C177.63536,78.3694632 177.546344,78.2804467 177.546344,78.0968503 L177.546344,37.9448706 L173.635184,37.9448706 C173.451587,37.9448706 173.362571,37.8558542 173.362571,37.6722578 L173.362571,35.9865089 C173.401515,35.8029124 173.490532,35.713896 173.635184,35.713896 L177.546344,35.713896 L177.546344,0.780505321 C177.585288,0.602472433 177.674305,0.507892462 177.818956,0.507892462 L177.818956,0.507892462 Z M177.657614,35.713896 L177.657614,37.9393071 L185.15725,37.9393071 L185.15725,35.713896 L177.657614,35.713896 Z M228.580584,0.613599489 C239.735457,0.613599489 247.07375,4.50806891 250.584336,12.2970077 C252.576079,16.1024607 253.57195,23.4351903 253.57195,34.3007599 L253.57195,34.6790798 L247.813699,34.6790798 L247.813699,37.2883743 L253.57195,37.2883743 L253.57195,65.3786259 L249.766497,65.3786259 L249.766497,75.4819923 L242.21679,75.4819923 L242.21679,78.3638996 L215.812287,78.3638996 L215.812287,75.4819923 L212.607695,75.4819923 L212.607695,65.3786259 L205.814628,65.3786259 L205.814628,57.4450353 L209.837059,57.4450353 L209.837059,53.2612625 L205.814628,53.2612625 L205.814628,57.4450353 L196.195289,57.4450353 L196.195289,53.2612625 L203.477946,53.2612625 C203.405621,46.9244044 203.366676,42.0674447 203.366676,38.7015104 L203.366676,32.0753489 C203.366676,19.7576984 205.447435,11.5181139 209.614518,7.35659511 C213.419971,2.8612647 219.745702,0.613599489 228.580584,0.613599489 L228.580584,0.613599489 Z M219.072515,27.4019856 L219.233857,27.4019856 L219.072515,27.6189631 L219.072515,34.6846434 L213.258628,34.6846434 L213.258628,37.2939379 L219.072515,37.2939379 C219.000189,48.4877557 218.961244,56.9276273 218.961244,62.6135526 L218.961244,65.3841894 L231.946518,65.3841894 L231.946518,61.0947095 L237.921747,61.0947095 L237.921747,60.9278037 C237.921747,55.6368888 237.888365,48.2707781 237.810476,38.8127809 C237.810476,38.4122069 237.849421,37.4163355 237.921747,35.8251665 C237.921747,25.6105296 237.326449,19.3237433 236.130291,16.970371 C234.900751,14.7227058 232.636395,13.6044368 229.337223,13.6044368 L227.434497,13.6044368 C223.484392,13.6044368 221.042004,15.3458209 220.101767,18.8230258 C219.667812,20.5199017 219.328437,23.379555 219.072515,27.4019856 L219.072515,27.4019856 Z M253.57195,34.6846434 L262.918677,34.6846434 L262.918677,37.2939379 L253.57195,37.2939379 L253.57195,34.6846434 Z M262.991003,0.830577071 L301.891189,0.830577071 L301.891189,13.7602155 L278.418665,13.7602155 L278.418665,32.1254206 L298.630961,32.1254206 L298.903574,32.2867629 L298.742232,32.5593758 C298.669906,35.1686703 298.630961,36.6875133 298.630961,37.1214685 L296.40555,37.1214685 L296.40555,37.2327391 C296.40555,38.1395941 296.316534,40.1480276 296.132937,43.2636031 L298.252641,43.2636031 C298.252641,44.7101203 298.12468,45.4389425 297.874322,45.4389425 L283.637254,45.4389425 L283.637254,48.1038723 L276.193254,48.1038723 L276.193254,49.5170083 L278.418665,49.5170083 L278.418665,56.3100757 L285.80703,56.3100757 L285.80703,57.5062341 L278.418665,57.5062341 L278.418665,76.3053944 L278.257323,77.1733047 L270.323732,77.1733047 L270.323732,78.3694632 L263.258052,78.3694632 C263.074456,78.3694632 262.985439,78.2804467 262.985439,78.0968503 L262.985439,76.1384885 L263.09671,74.8366231 L266.902163,74.8366231 L266.902163,72.8782613 L262.991003,72.8782613 L262.991003,65.4342612 L264.838094,65.4342612 L264.838094,38.0505776 L267.936979,38.0505776 L267.936979,36.0421441 L262.991003,36.0421441 L262.991003,0.830577071 L262.991003,0.830577071 Z M271.191643,56.3100757 L271.191643,57.5062341 L278.251759,57.5062341 L278.251759,56.3100757 L271.191643,56.3100757 Z M310.058447,0.507892462 L324.72947,0.507892462 C324.874122,0.546837156 324.946448,0.6358536 324.946448,0.780505321 L324.946448,38.5958034 C324.946448,38.7793998 324.874122,38.8684162 324.72947,38.8684162 L322.993649,38.8684162 L322.993649,78.0968503 C322.993649,78.2804467 322.904633,78.3694632 322.721036,78.3694632 L310.064011,78.3694632 C309.880414,78.3694632 309.791398,78.2804467 309.791398,78.0968503 L309.791398,37.9448706 L305.880238,37.9448706 C305.696642,37.9448706 305.607625,37.8558542 305.607625,37.6722578 L305.607625,35.9865089 C305.64657,35.8029124 305.735586,35.713896 305.880238,35.713896 L309.791398,35.713896 L309.791398,0.780505321 C309.819216,0.602472433 309.913796,0.507892462 310.058447,0.507892462 L310.058447,0.507892462 Z M309.891541,35.713896 L309.891541,37.9393071 L317.391177,37.9393071 L317.391177,35.713896 L309.891541,35.713896 Z M332.512845,0.563527739 L348.213121,0.563527739 L348.213121,1.21446048 C348.213121,6.13818253 349.119976,9.88800023 350.928122,12.45835 C355.634867,20.7869511 357.993802,25.2822815 357.993802,25.9332142 L358.155145,25.9332142 C358.155145,25.5326402 360.942472,20.0303113 366.52269,9.41510037 C367.212568,6.73348 367.557507,4.3467266 367.557507,2.24371312 L367.557507,0.563527739 L382.334236,0.563527739 L382.334236,0.674798294 C382.334236,7.99083727 381.032371,13.4764756 378.423076,17.1372769 C377.844469,18.2611095 373.660696,24.8538898 365.871758,36.915618 C367.501871,39.5249125 368.314146,40.9157944 368.314146,41.0993908 L363.479441,41.0993908 L363.479441,43.3248019 L369.671647,43.3248019 C370.105602,43.7587571 372.89293,48.248524 378.039193,56.7996661 L378.039193,66.5803479 L380.648487,66.5803479 L380.648487,72.611212 L374.890236,72.611212 L374.890236,74.4583032 L380.648487,74.4583032 L380.648487,78.3694632 L363.101121,78.3694632 L363.101121,56.7996661 L361.142759,56.7996661 C358.717061,51.6200218 357.504212,48.8660756 357.504212,48.543391 L357.34287,48.543391 C356.652992,50.357101 355.384508,53.1054837 353.537417,56.7996661 L353.537417,67.5038935 L348.213121,67.5038935 L348.213121,78.2637561 C345.5315,78.336082 343.556448,78.3750267 342.293527,78.3750267 L332.240232,78.3750267 L330.938367,78.2637561 L330.938367,65.5455317 L334.471207,65.5455317 L334.471207,54.4073492 L343.489686,54.4073492 L343.489686,52.4489874 L339.305913,52.4489874 L339.305913,44.8992803 L344.958457,44.8992803 C345.214379,44.6099768 346.772167,42.1620246 349.63182,37.5665507 L349.63182,37.2939379 C341.158567,24.6146582 336.535276,17.6435579 335.778636,16.3750736 C333.603297,12.9701946 332.518409,7.82949497 332.518409,0.947411153 L332.512845,0.563527739 L332.512845,0.563527739 Z" id="Shape"></path>
            </g>
        </g>
    </g>
</svg>