<?xml version="1.0" encoding="UTF-8"?>
<svg width="492px" height="79px" viewBox="0 0 492 79" version="1.1" xmlns="http://www.w3.org/2000/svg" xmlns:xlink="http://www.w3.org/1999/xlink">
    <!-- Generator: Sketch 43.2 (39069) - http://www.bohemiancoding.com/sketch -->
    <title>Group</title>
    <desc>Created with Sketch.</desc>
    <defs></defs>
    <g id="Page-1" stroke="none" stroke-width="1" fill="none" fill-rule="evenodd">
        <g id="Group" transform="translate(-1.000000, 0.000000)" fill-rule="nonzero">
            <g id="Logo" transform="translate(394.326098, 0.643021)" fill="#158E1A">
                <path d="M97.8114252,1.26690189 L97.8114252,76.7620553 L1.51188292,76.7620553 L1.51188292,1.26690189 L97.8114252,1.26690189 L97.8114252,1.26690189 Z M98.3733817,0.704945407 L0.949926435,0.704945407 L0.949926435,77.3250117 L98.3733817,77.3250117 L98.3733817,0.704945407 L98.3733817,0.704945407 Z M10.0442221,13.8729256 C7.58441264,13.8729256 5.58256767,11.8720806 5.58256767,9.41127116 C5.58256767,6.95146166 7.58441264,4.94961669 10.0442221,4.94961669 C12.5040317,4.94961669 14.5058766,6.95046174 14.5058766,9.41127116 C14.5068765,11.8710807 12.5050316,13.8729256 10.0442221,13.8729256 L10.0442221,13.8729256 Z M10.0442221,5.51157317 C7.89438864,5.51157317 6.14452415,7.26143765 6.14452415,9.41127116 C6.14452415,11.5621046 7.89438864,13.3109692 10.0442221,13.3109692 C12.1950556,13.3109692 13.9439201,11.5621046 13.9439201,9.41127116 C13.9439201,7.26043773 12.1950556,5.51157317 10.0442221,5.51157317 L10.0442221,5.51157317 Z M40.0908952,49.8311409 C34.0443635,49.8311409 29.1247445,44.9125218 29.1247445,38.8649902 C29.1247445,32.8184584 34.0433636,27.8998394 40.0908952,27.8998394 C46.137427,27.8998394 51.057046,32.8184584 51.057046,38.8649902 C51.057046,44.9125218 46.137427,49.8311409 40.0908952,49.8311409 L40.0908952,49.8311409 Z M40.0908952,28.4627958 C34.3543395,28.4627958 29.6877009,33.1294344 29.6877009,38.8659901 C29.6877009,44.6025459 34.3543395,49.2691845 40.0908952,49.2691845 C45.8264511,49.2691845 50.4930897,44.6025459 50.4930897,38.8659901 C50.4950895,33.1294344 45.827451,28.4627958 40.0908952,28.4627958 L40.0908952,28.4627958 Z M83.1915574,62.9971213 C82.0456461,62.9971213 81.1107186,62.0631936 81.1107186,60.9162825 C81.1107186,59.7693713 82.0456461,58.8344437 83.1915574,58.8344437 C84.3384686,58.8344437 85.2733962,59.7693713 85.2733962,60.9162825 C85.2733962,62.0631936 84.3384686,62.9971213 83.1915574,62.9971213 L83.1915574,62.9971213 Z M83.1915574,59.3984 C82.3536223,59.3984 81.672675,60.0793473 81.672675,60.9172824 C81.672675,61.7552175 82.3536223,62.4371647 83.1915574,62.4371647 C84.0294925,62.4371647 84.7114397,61.7552175 84.7114397,60.9172824 C84.7114397,60.0793473 84.0294925,59.3984 83.1915574,59.3984 L83.1915574,59.3984 Z M13.9519195,73.3333209 L4.79562861,73.3333209 L4.79562861,66.9648141 L13.9519195,66.9648141 L13.9519195,73.3333209 L13.9519195,73.3333209 Z M5.35758509,72.7723643 L13.389963,72.7723643 L13.389963,67.5277705 L5.35758509,67.5277705 L5.35758509,72.7723643 L5.35758509,72.7723643 Z M20.2234338,71.6104543 L19.6614774,71.6104543 L14.8998461,71.6104543 L14.8998461,73.3343208 L19.6614774,73.3343208 L20.2234338,73.3343208 L24.9850651,73.3343208 L24.9850651,71.6104543 L20.2234338,71.6104543 Z M19.6604774,72.7723643 L15.4608027,72.7723643 L15.4608027,72.1724108 L19.6604774,72.1724108 L19.6604774,72.7723643 Z M24.4221087,72.7723643 L20.2234338,72.7723643 L20.2234338,72.1724108 L24.4221087,72.1724108 L24.4221087,72.7723643 Z M92.6848222,66.1738753 L86.0513359,66.1738753 L86.0513359,40.2028866 L92.6848222,40.2028866 L92.6848222,66.1738753 L92.6848222,66.1738753 Z M86.6132924,65.6129187 L92.1228657,65.6129187 L92.1228657,40.765843 L86.6132924,40.765843 L86.6132924,65.6129187 L86.6132924,65.6129187 Z M78.3169349,58.8384434 C77.9769612,58.6034616 77.5089975,58.6854552 77.2730158,59.0254289 C77.037034,59.3664025 77.1200276,59.8333663 77.4600013,60.0693481 C77.7999749,60.3063297 78.2669388,60.2223362 78.5029205,59.8833625 C78.7409021,59.5423889 78.6559087,59.075425 78.3169349,58.8384434 Z M75.965117,62.2121821 C75.6251434,61.9762004 75.1581795,62.059194 74.9211979,62.3991676 C74.6842162,62.7381414 74.7682097,63.2061051 75.1081834,63.4430868 C75.4481571,63.6790685 75.9151209,63.5960749 76.1521026,63.2571012 C76.3870844,62.9161276 76.3040908,62.4501637 75.965117,62.2121821 Z M77.1400261,60.5263127 C76.8000524,60.2903309 76.3330885,60.3733245 76.0971068,60.7132982 C75.8601252,61.0532719 75.9441187,61.5202357 76.2830924,61.7572173 C76.6230661,61.9931991 77.0900299,61.9092056 77.3260117,61.5702318 C77.5629933,61.2302582 77.4809996,60.7622944 77.1400261,60.5263127 Z M91.6439028,50.8920588 L91.6439028,50.3501007 C91.6439028,50.1311177 91.4669165,49.9541314 91.2479335,49.9541314 L90.3999992,49.9541314 L90.3999992,41.7247687 L89.8380427,41.7247687 L89.8380427,49.9541314 L88.9901083,49.9541314 C88.7701254,49.9541314 88.594139,50.1321176 88.594139,50.3501007 L88.594139,50.8920588 L89.8380427,50.8920588 L89.8380427,51.0360476 L88.594139,51.0360476 L88.594139,51.4800132 L89.8380427,51.4800132 L89.8380427,51.7649912 L88.594139,51.7649912 L88.594139,52.9638983 L89.8380427,52.9638983 L89.8380427,53.4128636 L88.594139,53.4128636 L88.594139,54.6127706 L89.8380427,54.6127706 L89.8380427,54.8987485 L88.594139,54.8987485 L88.594139,55.3427141 L89.8380427,55.3427141 L89.8380427,55.485703 L88.594139,55.485703 L88.594139,56.028661 C88.594139,56.247644 88.7711253,56.4246303 88.9901083,56.4246303 L89.8380427,56.4246303 L89.8380427,64.653993 L90.3999992,64.653993 L90.3999992,56.4246303 L91.2479335,56.4246303 C91.4669165,56.4246303 91.6439028,56.2466441 91.6439028,56.028661 L91.6439028,55.485703 L90.4009991,55.485703 L90.4009991,55.3427141 L91.6439028,55.3427141 L91.6439028,54.8987485 L90.4009991,54.8987485 L90.4009991,54.6127706 L91.6439028,54.6127706 L91.6439028,53.4128636 L90.4009991,53.4128636 L90.4009991,52.9638983 L91.6439028,52.9638983 L91.6439028,51.7649912 L90.4009991,51.7649912 L90.4009991,51.4800132 L91.6439028,51.4800132 L91.6439028,51.0360476 L90.4009991,51.0360476 L90.4009991,50.8920588 L91.6439028,50.8920588 L91.6439028,50.8920588 Z M88.2651645,42.2857253 L88.2651645,41.7237688 L87.1932475,41.7237688 L87.1932475,42.2857253 L88.2651645,42.2857253 L88.2651645,42.2857253 Z M88.2651645,64.6549929 L88.2651645,64.0920365 L87.1932475,64.0920365 L87.1932475,64.6549929 L88.2651645,64.6549929 L88.2651645,64.6549929 Z M88.2651645,53.4698591 L88.2651645,52.9079027 L87.1932475,52.9079027 L87.1932475,53.4698591 L88.2651645,53.4698591 L88.2651645,53.4698591 Z M88.2651645,50.6740757 L88.2651645,50.1121192 L87.1932475,50.1121192 L87.1932475,50.6740757 L88.2651645,50.6740757 L88.2651645,50.6740757 Z M88.2651645,47.8782922 L88.2651645,47.3163357 L87.1932475,47.3163357 L87.1932475,47.8782922 L88.2651645,47.8782922 L88.2651645,47.8782922 Z M88.2651645,45.0815088 L88.2651645,44.5195523 L87.1932475,44.5195523 L87.1932475,45.0815088 L88.2651645,45.0815088 L88.2651645,45.0815088 Z M88.2651645,56.2666425 L88.2651645,55.7046861 L87.1932475,55.7046861 L87.1932475,56.2666425 L88.2651645,56.2666425 L88.2651645,56.2666425 Z M88.2651645,59.062426 L88.2651645,58.5004696 L87.1932475,58.5004696 L87.1932475,59.062426 L88.2651645,59.062426 L88.2651645,59.062426 Z M88.2651645,61.8582095 L88.2651645,61.296253 L87.1932475,61.296253 L87.1932475,61.8582095 L88.2651645,61.8582095 L88.2651645,61.8582095 Z M40.0908952,38.2390387 C39.6619285,38.2390387 39.3149553,38.5860118 39.3149553,39.0149786 C39.3149553,39.4429454 39.6619285,39.7899186 40.0908952,39.7899186 C40.5188621,39.7899186 40.8658352,39.4429454 40.8658352,39.0149786 C40.8658352,38.5860118 40.519862,38.2390387 40.0908952,38.2390387 Z M10.0442221,8.63533126 C9.61625529,8.63533126 9.26928216,8.98230438 9.26928216,9.41027124 C9.26928216,9.83923802 9.61625529,10.1852112 10.0442221,10.1852112 C10.4731889,10.1852112 10.8191621,9.8382381 10.8191621,9.41027124 C10.8201621,8.98230438 10.4731889,8.63533126 10.0442221,8.63533126 Z M7.68940451,58.2544886 C6.0935281,58.2544886 4.79462869,59.553388 4.79462869,61.1492644 C4.79462869,62.7451408 6.0935281,64.0440402 7.68940451,64.0440402 C9.28528092,64.0440402 10.5841803,62.7451408 10.5841803,61.1492644 C10.5841803,59.553388 9.28528092,58.2544886 7.68940451,58.2544886 Z M7.68940451,63.4810838 C6.40350409,63.4810838 5.35758509,62.4351648 5.35758509,61.1492644 C5.35758509,59.9593566 6.25451563,58.9744328 7.40842627,58.8354436 L7.40842627,61.1492644 L7.97038275,61.1492644 L7.97038275,58.8354436 C9.12329347,58.9754328 10.0212239,59.9593566 10.0212239,61.1492644 C10.0212239,62.4351648 8.97530493,63.4810838 7.68940451,63.4810838 Z M94.0737147,20.8493854 C94.0737147,17.7876225 92.9797994,14.8188524 90.995953,12.4930325 C89.1000998,10.2732044 86.5063007,8.7613215 83.6605211,8.2073644 C83.7935108,6.94746197 83.8905033,6.02153368 83.8905033,6.02153368 L81.6546764,5.78555195 C81.6546764,5.78555195 81.556684,6.71148024 81.4246942,7.97138267 C81.3477002,7.97038275 81.2707062,7.96838291 81.1927122,7.96838291 C78.1249498,7.96838291 75.1541798,9.06429803 72.8253602,11.0551439 C70.6915254,12.8790026 69.2146398,15.3488113 68.6146863,18.064601 C67.5447691,16.6037142 66.3558612,15.2128219 65.0499623,13.906923 C58.3844785,7.24043928 49.520165,3.56872363 40.0928951,3.56872363 C30.6656252,3.56872363 21.8013116,7.24043928 15.1348279,13.906923 C8.46734426,20.5744067 4.79562861,29.4377203 4.79562861,38.8659901 C4.79562861,48.29426 8.46734426,57.1575736 15.133828,63.8240573 C21.8003117,70.490541 30.6646252,74.1622567 40.0918952,74.1622567 C49.5191651,74.1622567 58.3834786,70.490541 65.0489624,63.8240573 C71.7154461,57.1575736 75.3881617,48.29426 75.3881617,38.8659901 C75.3881617,36.5321708 75.1611793,34.231349 74.7222133,31.9915225 C75.9621173,32.7154664 77.3040134,33.2194274 78.7169039,33.4934062 C78.8118966,34.4443325 79.1898673,35.9792137 79.7598232,38.2510377 C80.252785,40.210886 80.8107418,42.4327139 81.1297171,44.2735713 C81.7286707,47.7273039 81.2117107,49.8351406 80.8347399,51.3750214 C80.8087419,51.483013 80.782744,51.5880049 80.7587458,51.689997 C80.4287714,53.0628907 80.1637919,54.1618056 77.9309648,57.422553 L77.464001,57.0975782 L73.9062765,62.200183 L72.3293986,62.3341727 L69.199641,66.823825 L73.9782709,70.154567 L77.1080285,65.6659146 L76.6880611,64.1400328 L80.2457855,59.037428 L79.7758219,58.7094534 C82.0806434,55.3467138 82.5176096,53.9928186 82.9445765,52.2149563 C82.9675748,52.115964 82.9935727,52.0149718 83.0185708,51.9099799 C83.4185398,50.2751066 84.023493,47.8062977 83.3445456,43.8896011 C83.0115713,41.9657501 82.4426154,39.7019254 81.9396544,37.7030802 C81.5636835,36.2031963 81.1757135,34.6643155 81.0177258,33.7273881 C81.0757213,33.728388 81.1327168,33.7303878 81.1917123,33.7303878 C88.2941622,33.7313877 94.0737147,27.9528353 94.0737147,20.8493854 Z M76.0771084,64.0330411 L76.4960759,65.5589229 L73.8392817,69.3706277 L69.9835803,66.6828359 L72.6403745,62.8711311 L74.2172524,62.7371415 L77.6039901,57.8795176 L79.4638461,59.1764172 L76.0771084,64.0330411 Z M40.0908952,73.5993003 C20.9383785,73.5993003 5.35758509,58.017507 5.35758509,38.8659901 C5.35758509,19.7144733 20.9393784,4.13267995 40.0908952,4.13267995 C59.2424121,4.13267995 74.8242054,19.7144733 74.8242054,38.8659901 C74.8242054,58.017507 59.243412,73.5993003 40.0908952,73.5993003 Z M69.0626516,18.6915525 C70.1025711,12.796009 75.1831776,8.53033939 81.1917123,8.53033939 C81.2497078,8.53033939 81.3067034,8.53133931 81.3646989,8.53233923 C81.2227099,9.87123554 81.0547229,11.4571127 80.923733,12.7050161 C76.5530715,12.8470051 73.0403435,16.4447265 73.0403435,20.8493854 C73.0403435,24.5640977 75.5161518,27.7728492 79.0828756,28.7237755 C78.9008897,30.1236671 78.6979054,31.8005373 78.6919059,32.9154509 C77.2200199,32.6124744 75.8341272,32.0475181 74.5632256,31.2345811 C73.5753021,26.7309299 71.7134463,22.481259 69.0626516,18.6915525 Z M79.3188573,26.870919 C79.2868598,27.1768953 79.2268644,27.6258606 79.1578698,28.1478202 C79.1578698,28.1518198 79.1568699,28.1578194 79.1558699,28.1618191 C75.8741241,27.2528895 73.6023,24.2841194 73.6023,20.8493854 C73.6023,16.7747009 76.83105,13.4409591 80.8637377,13.2689724 C80.807742,13.7959316 80.7627455,14.2288981 80.7337477,14.5068765 C80.7037501,14.7928544 80.5017657,16.5437188 80.2667839,18.5705618 C79.9098116,21.6683219 79.464846,25.5210236 79.3188573,26.870919 Z M81.3966964,37.8460691 C81.8956578,39.8329152 82.460614,42.0857408 82.7905885,43.9865936 C83.4495374,47.7862993 82.8625829,50.1861134 82.473613,51.7759903 L82.4676135,51.7979886 C82.4446153,51.895981 82.4206171,51.9899737 82.3986188,52.0829665 C81.9886506,53.7928341 81.5676832,55.0967331 79.3388558,58.352481 L78.4159272,57.7095308 C80.6887512,54.3857882 80.96273,53.2458765 81.3047035,51.8199869 C81.3257019,51.7339936 81.3477002,51.6450005 81.3696985,51.5540075 L81.3816976,51.5070111 C81.7706674,49.920134 82.3026262,47.7463024 81.6836742,44.1765788 C81.3606992,42.3127232 80.8007426,40.080896 80.3057809,38.1130484 C79.6618308,35.5552465 79.271861,33.9433713 79.2548623,33.1174353 C79.2308641,31.9065291 79.5108425,29.7756941 79.7158266,28.2208145 L79.7198263,28.1968164 C79.7868211,27.6818562 79.8458165,27.2378906 79.878814,26.9309144 C80.0248026,25.5870185 80.4667684,21.7513155 80.8217409,18.6695542 L80.8257406,18.6355568 C81.0807209,16.4287277 81.2637067,14.8448504 81.2927045,14.5648721 C81.4366933,13.2019776 81.9756516,8.10637222 82.1546377,6.40250417 L83.2725511,6.52049503 C83.0925651,8.22436308 82.5546067,13.3189685 82.4106179,14.681863 C82.3796203,14.97884 82.1776359,16.7327042 81.9426541,18.7635469 L81.9266554,18.8935368 C81.5756825,21.9373011 81.1387164,25.7260077 80.9947275,27.051905 C80.9597302,27.3788797 80.8997349,27.8368442 80.8297403,28.3678031 C80.6407549,29.8016921 80.355777,31.9695242 80.3777753,33.095437 C80.3937741,33.8523784 80.8797364,35.7892284 81.3956965,37.8390696 L81.3966964,37.8460691 Z M83.1005645,13.5039542 C86.4133079,14.3628877 88.7811245,17.3906532 88.7811245,20.8493854 C88.7811245,24.9680664 85.48238,28.3288061 81.388697,28.433798 C81.4586916,27.9018392 81.518687,27.4428747 81.5546842,27.1129003 C81.7006729,25.7700043 82.1436386,21.9223023 82.5006109,18.8295418 C82.744592,16.7127057 82.938577,15.0398353 82.9685747,14.7418583 C82.9995723,14.4648798 83.0445688,14.0319133 83.1005645,13.5039542 Z M80.9407317,33.0854378 C80.9217332,32.1355113 81.1357166,30.3736478 81.3147028,28.9977543 C85.7523591,28.9317594 89.343081,25.3030405 89.343081,20.8493854 C89.343081,17.1066752 86.7622809,13.8309289 83.15856,12.937998 C83.2915497,11.6900947 83.4585367,10.1062173 83.5995258,8.76832096 C89.3620795,9.90723276 93.5097583,14.9318436 93.5097583,20.8493854 C93.5097583,27.6418593 87.9841863,33.1694313 81.1907124,33.1694313 C81.1077188,33.1694313 81.0257251,33.1664315 80.9427316,33.1644317 C80.9427316,33.1374337 80.9417316,33.1094359 80.9407317,33.0854378 Z M40.0908952,6.93846267 C31.5625557,6.93846267 23.5451766,10.2592055 17.5146436,16.2897385 C11.4841106,22.3202715 8.16336781,30.3376506 8.16336781,38.8659901 C8.16336781,47.3943296 11.4841106,55.4127087 17.5146436,61.4422417 C23.5451766,67.4727747 31.5625557,70.7945175 40.0908952,70.7945175 C48.6192348,70.7945175 56.6366139,67.4737746 62.6671469,61.4422417 C68.6976799,55.4127087 72.0184227,47.3943296 72.0184227,38.8659901 C72.0184227,30.3376506 68.6986798,22.3202715 62.6671469,16.2897385 C56.6376138,10.2592055 48.6192348,6.93846267 40.0908952,6.93846267 Z M40.0908952,70.2315611 C22.7962346,70.2315611 8.72532429,56.1606508 8.72532429,38.8659901 C8.72532429,21.5713295 22.7962346,7.50041915 40.0908952,7.50041915 C57.3865558,7.50041915 71.4564662,21.5713295 71.4564662,38.8659901 C71.4564662,56.1606508 57.3865558,70.2315611 40.0908952,70.2315611 Z" id="Shape"></path>
            </g>
            <g id="Logotype" transform="translate(0.480016, 0.218883)" fill="#000000">
                <path d="M24.1209392,0.563527739 L37.2174835,0.563527739 C37.4010799,1.32573104 41.6571786,15.4849091 49.9857796,43.0521891 L52.3224613,43.0521891 L52.3224613,68.6444167 L46.94253,68.6444167 L46.94253,70.6528502 L52.3224613,70.6528502 L52.3224613,76.1384885 L37.8684162,76.1384885 L37.8684162,60.382578 L20.1541439,60.382578 L20.1541439,67.0643748 L12.9827566,67.0643748 L12.9827566,78.3638996 L0.870956758,78.3638996 L0.870956758,67.0643748 L6.25088808,67.0643748 L6.25088808,45.2776002 L10.7072738,45.2776002 L24.1209392,0.563527739 Z M30.2630738,22.4560094 L30.2630738,22.6173517 C29.1392412,28.7761769 26.9694654,38.517914 23.7426193,51.8481264 L35.9100545,51.8481264 L35.9100545,43.0466256 L34.8808018,43.0466256 C31.9822039,30.4396717 30.5356867,23.579842 30.5356867,22.4560094 L30.2630738,22.4560094 L30.2630738,22.4560094 Z M7.06316313,41.3664402 L8.2593216,41.3664402 C8.2593216,41.6946883 8.4206639,41.9617376 8.74891204,42.1787152 C8.78785673,41.8504671 8.96588962,41.5834178 9.29413775,41.3664402 L10.2176834,41.3664402 L10.2176834,41.4777107 C9.60013178,42.3456211 9.29413775,42.8352115 9.29413775,42.9464821 C9.43878948,43.2747302 9.7837282,43.7977018 10.3289539,44.5209604 L10.3289539,44.7935733 L9.83379995,44.7935733 C9.32751892,44.7935733 8.96588962,44.431944 8.74891204,43.7086854 C8.20368632,44.431944 7.89769229,44.7935733 7.82536643,44.7935733 L7.16887016,44.7935733 C6.98527374,44.7935733 6.8962573,44.7045568 6.8962573,44.5209604 C7.00752785,44.5209604 7.36915716,44.03137 7.98114521,43.0521891 L7.98114521,42.8352115 C7.36915716,41.9283565 7.06316313,41.438766 7.06316313,41.3664402 L7.06316313,41.3664402 Z M0.681796815,42.9409185 L6.24532455,42.9409185 L6.24532455,45.2776002 L0.681796815,45.2776002 L0.681796815,42.9409185 Z M52.7007812,44.6266674 L55.471418,44.6266674 L55.471418,45.2776002 L53.7856691,47.3973042 L55.3601474,47.3973042 C55.5047992,47.4362489 55.577125,47.5252654 55.577125,47.6699171 L55.577125,47.94253 C55.577125,48.1261264 55.5047992,48.2151428 55.3601474,48.2151428 L52.5895106,48.2151428 L52.5895106,47.5642101 L54.2752595,45.444506 L52.7007812,45.444506 L52.7007812,44.6266674 L52.7007812,44.6266674 Z M32.6498272,48.048237 L33.4120305,48.048237 L33.4120305,49.3501025 L34.8808018,48.048237 L35.6430051,48.048237 L35.6430051,48.2095793 L34.5024819,49.5114448 C35.3703923,50.7409844 35.8043474,51.4308619 35.8043474,51.5755136 L34.9865089,51.5755136 C34.914183,51.5755136 34.513609,51.1026137 33.7903504,50.1623775 C33.6790798,50.1623775 33.5566822,50.2903387 33.4120305,50.5406974 L33.4120305,51.5755136 L32.6498272,51.5755136 L32.6498272,48.048237 L32.6498272,48.048237 Z M52.973394,49.2443955 L54.5478724,49.2443955 C55.3434569,49.355666 55.7440308,49.7506765 55.7440308,50.4405539 L55.365711,51.0914867 C55.6216332,51.3807901 55.7440308,51.9037617 55.7440308,52.665965 L55.7440308,52.7772356 L54.9261923,52.7772356 C54.8538664,51.9093252 54.7259053,51.4753701 54.5478724,51.4753701 L53.6243268,51.4753701 L53.6243268,52.7772356 L52.973394,52.7772356 C52.7897976,52.7772356 52.7007812,52.6882191 52.7007812,52.5046227 L52.7007812,49.5170083 C52.7341623,49.3334119 52.8287423,49.2443955 52.973394,49.2443955 L52.973394,49.2443955 Z M53.6243268,50.0065988 L53.6243268,50.8188738 L54.5478724,50.8188738 C54.7314688,50.8188738 54.8204852,50.7298574 54.8204852,50.5462609 L54.8204852,50.0010352 L53.6243268,50.0010352 L53.6243268,50.0065988 Z M52.7007812,53.8064882 L55.1988051,53.8064882 C55.3824015,53.8454329 55.471418,53.9344493 55.471418,54.0791011 L55.471418,54.3517139 C55.471418,54.5353103 55.3824015,54.6243268 55.1988051,54.6243268 L54.4366018,54.6243268 L54.4366018,57.3949636 L53.5130562,57.3949636 L53.5130562,54.6243268 L52.7007812,54.6243268 C52.5171848,54.6243268 52.4281683,54.5353103 52.4281683,54.3517139 L52.4281683,54.0791011 C52.4615495,53.9010682 52.5561295,53.8064882 52.7007812,53.8064882 Z M52.4281683,58.4242162 L53.0791011,58.4242162 C53.3350233,58.4242162 53.6020727,59.1641654 53.8913761,60.6496273 L54.0026467,60.6496273 C54.4366018,59.3477618 54.6535794,58.6022491 54.6535794,58.4242162 L55.577125,58.4242162 C54.8872476,60.7775885 54.4532924,61.9570563 54.2752595,61.9570563 L53.5130562,61.9570563 L52.4281683,58.4242162 Z M24.1209392,61.4118306 L24.1209392,62.1183986 C24.1209392,62.2630504 23.4143712,62.5523538 22.0012351,62.986309 L22.0012351,63.1476513 L24.1209392,63.9098546 L24.1209392,64.7221296 L20.8050766,63.5259712 L20.8050766,62.6024256 L24.1209392,61.4118306 Z M3.7473006,62.9918725 L4.18125576,62.9918725 C4.4705592,62.9918725 4.94345906,64.188031 5.59439181,66.5803479 L4.83218851,66.5803479 C4.83218851,66.508022 4.74317206,66.2354092 4.55957565,65.7680728 L3.36898071,65.7680728 C3.29665485,66.3132986 3.16869371,66.5803479 2.99066083,66.5803479 L2.33416455,66.5803479 C3.09636785,64.188031 3.56370418,62.9918725 3.7473006,62.9918725 Z M54.163989,62.9918725 L54.5423089,62.9918725 C55.4102192,62.9918725 55.9387543,63.6094241 56.1167872,64.8389637 C55.8608649,66.0685033 55.3045122,66.6860549 54.4310383,66.6860549 C53.2014987,66.4690773 52.5839471,65.8515258 52.5839471,64.8389637 C52.773107,63.6038606 53.2960786,62.9918725 54.163989,62.9918725 Z M53.5130562,64.7276932 L53.5130562,64.8389637 C53.5130562,65.3118636 53.7300338,65.6734929 54.163989,65.9238516 L54.5423089,65.9238516 C54.9818275,65.6679293 55.1988051,65.3063 55.1988051,64.8389637 L55.1988051,64.7276932 C55.1264793,64.0378157 54.8204852,63.692877 54.2752595,63.692877 C53.7689785,63.8764734 53.5130562,64.2214121 53.5130562,64.7276932 Z M3.9086429,64.188031 C3.72504649,64.7666378 3.63603004,65.0781954 3.63603004,65.1115766 L4.29252632,65.1115766 L4.01991346,64.188031 L3.9086429,64.188031 L3.9086429,64.188031 Z M37.8684162,77.0620342 L55.3601474,77.0620342 L55.3601474,78.3638996 L37.8684162,78.3638996 L37.8684162,77.0620342 Z M59.5606109,0.563527739 L74.5543181,0.563527739 L74.5543181,41.6946883 L67.4886379,41.6946883 L67.4886379,43.8700277 L74.5543181,43.8700277 L74.5543181,51.5866406 C74.5543181,58.6133762 75.8061119,62.7081326 78.3041358,63.8653464 C79.5726202,64.6609308 81.1470985,65.0615048 83.0331344,65.0615048 L87.6508624,65.0615048 L87.6508624,51.4252983 L91.7233647,51.4252983 L91.7233647,0.563527739 L106.611365,0.563527739 L106.611365,48.3764851 L101.231434,48.3764851 L101.231434,51.85369 L106.611365,51.85369 C106.539039,52.9775226 106.500094,53.8287423 106.500094,54.4073492 L106.500094,69.6736693 L98.6777744,69.6736693 L98.6777744,78.3694632 L63.905726,78.3694632 L63.905726,67.6096005 L60.7011341,67.6096005 L60.7011341,35.4468467 L59.5606109,35.4468467 L59.5606109,0.563527739 L59.5606109,0.563527739 Z M74.5543181,41.6946883 L83.0275709,41.6946883 L83.0275709,43.8700277 L74.5543181,43.8700277 L74.5543181,41.6946883 Z M117.05967,0.669234766 L140.749171,0.669234766 C150.602179,0.669234766 157.372992,4.01847847 161.067174,10.7225294 C164.255076,15.9411184 165.846245,24.592404 165.846245,36.6930769 L168.182926,36.6930769 L168.182926,55.2752595 L145.144358,55.2752595 L145.144358,53.1555555 L152.371381,53.1555555 L152.371381,36.6930769 L150.251677,36.6930769 L150.251677,29.9000095 C150.251677,22.2557224 148.549237,17.3876356 145.144358,15.2846221 C143.152615,14.1607895 139.948023,13.5988732 135.525019,13.5988732 L132.320427,13.5988732 L132.320427,36.3091935 L134.495766,36.3091935 L134.495766,55.269696 L118.956833,55.269696 L118.956833,37.7223295 L117.054107,37.7223295 L117.05967,0.669234766 L117.05967,0.669234766 Z M110.160896,55.2752595 L117.170941,55.2752595 L117.170941,57.7176482 L134.50133,57.7176482 L134.50133,62.8249667 L145.149922,62.8249667 L145.149922,57.7176482 L168.18849,57.7176482 L168.18849,62.8249667 L152.376944,62.8249667 L152.376944,76.6781507 L134.50133,76.6781507 L134.50133,78.3638996 L117.332283,78.3638996 C117.148687,78.3638996 117.05967,78.2748832 117.05967,78.0912868 L117.05967,57.7176482 L110.160896,57.7176482 L110.160896,55.2752595 L110.160896,55.2752595 Z M134.50133,55.2752595 L145.149922,55.2752595 L145.149922,57.7176482 L134.50133,57.7176482 L134.50133,55.2752595 Z M168.18849,55.2752595 L183.45481,55.2752595 L183.45481,57.7176482 L168.18849,57.7176482 L168.18849,55.2752595 L168.18849,55.2752595 Z M177.818956,0.507892462 L192.489979,0.507892462 C192.634631,0.546837156 192.706957,0.6358536 192.706957,0.780505321 L192.706957,38.5958034 C192.706957,38.7793998 192.634631,38.8684162 192.489979,38.8684162 L190.754158,38.8684162 L190.754158,78.0968503 C190.754158,78.2804467 190.665142,78.3694632 190.481546,78.3694632 L177.818956,78.3694632 C177.63536,78.3694632 177.546344,78.2804467 177.546344,78.0968503 L177.546344,37.9448706 L173.635184,37.9448706 C173.451587,37.9448706 173.362571,37.8558542 173.362571,37.6722578 L173.362571,35.9865089 C173.401515,35.8029124 173.490532,35.713896 173.635184,35.713896 L177.546344,35.713896 L177.546344,0.780505321 C177.585288,0.602472433 177.674305,0.507892462 177.818956,0.507892462 L177.818956,0.507892462 Z M177.657614,35.713896 L177.657614,37.9393071 L185.15725,37.9393071 L185.15725,35.713896 L177.657614,35.713896 Z M228.580584,0.613599489 C239.735457,0.613599489 247.07375,4.50806891 250.584336,12.2970077 C252.576079,16.1024607 253.57195,23.4351903 253.57195,34.3007599 L253.57195,34.6790798 L247.813699,34.6790798 L247.813699,37.2883743 L253.57195,37.2883743 L253.57195,65.3786259 L249.766497,65.3786259 L249.766497,75.4819923 L242.21679,75.4819923 L242.21679,78.3638996 L215.812287,78.3638996 L215.812287,75.4819923 L212.607695,75.4819923 L212.607695,65.3786259 L205.814628,65.3786259 L205.814628,57.4450353 L209.837059,57.4450353 L209.837059,53.2612625 L205.814628,53.2612625 L205.814628,57.4450353 L196.195289,57.4450353 L196.195289,53.2612625 L203.477946,53.2612625 C203.405621,46.9244044 203.366676,42.0674447 203.366676,38.7015104 L203.366676,32.0753489 C203.366676,19.7576984 205.447435,11.5181139 209.614518,7.35659511 C213.419971,2.8612647 219.745702,0.613599489 228.580584,0.613599489 L228.580584,0.613599489 Z M219.072515,27.4019856 L219.233857,27.4019856 L219.072515,27.6189631 L219.072515,34.6846434 L213.258628,34.6846434 L213.258628,37.2939379 L219.072515,37.2939379 C219.000189,48.4877557 218.961244,56.9276273 218.961244,62.6135526 L218.961244,65.3841894 L231.946518,65.3841894 L231.946518,61.0947095 L237.921747,61.0947095 L237.921747,60.9278037 C237.921747,55.6368888 237.888365,48.2707781 237.810476,38.8127809 C237.810476,38.4122069 237.849421,37.4163355 237.921747,35.8251665 C237.921747,25.6105296 237.326449,19.3237433 236.130291,16.970371 C234.900751,14.7227058 232.636395,13.6044368 229.337223,13.6044368 L227.434497,13.6044368 C223.484392,13.6044368 221.042004,15.3458209 220.101767,18.8230258 C219.667812,20.5199017 219.328437,23.379555 219.072515,27.4019856 L219.072515,27.4019856 Z M253.57195,34.6846434 L262.918677,34.6846434 L262.918677,37.2939379 L253.57195,37.2939379 L253.57195,34.6846434 Z M262.991003,0.830577071 L301.891189,0.830577071 L301.891189,13.7602155 L278.418665,13.7602155 L278.418665,32.1254206 L298.630961,32.1254206 L298.903574,32.2867629 L298.742232,32.5593758 C298.669906,35.1686703 298.630961,36.6875133 298.630961,37.1214685 L296.40555,37.1214685 L296.40555,37.2327391 C296.40555,38.1395941 296.316534,40.1480276 296.132937,43.2636031 L298.252641,43.2636031 C298.252641,44.7101203 298.12468,45.4389425 297.874322,45.4389425 L283.637254,45.4389425 L283.637254,48.1038723 L276.193254,48.1038723 L276.193254,49.5170083 L278.418665,49.5170083 L278.418665,56.3100757 L285.80703,56.3100757 L285.80703,57.5062341 L278.418665,57.5062341 L278.418665,76.3053944 L278.257323,77.1733047 L270.323732,77.1733047 L270.323732,78.3694632 L263.258052,78.3694632 C263.074456,78.3694632 262.985439,78.2804467 262.985439,78.0968503 L262.985439,76.1384885 L263.09671,74.8366231 L266.902163,74.8366231 L266.902163,72.8782613 L262.991003,72.8782613 L262.991003,65.4342612 L264.838094,65.4342612 L264.838094,38.0505776 L267.936979,38.0505776 L267.936979,36.0421441 L262.991003,36.0421441 L262.991003,0.830577071 L262.991003,0.830577071 Z M271.191643,56.3100757 L271.191643,57.5062341 L278.251759,57.5062341 L278.251759,56.3100757 L271.191643,56.3100757 Z M310.058447,0.507892462 L324.72947,0.507892462 C324.874122,0.546837156 324.946448,0.6358536 324.946448,0.780505321 L324.946448,38.5958034 C324.946448,38.7793998 324.874122,38.8684162 324.72947,38.8684162 L322.993649,38.8684162 L322.993649,78.0968503 C322.993649,78.2804467 322.904633,78.3694632 322.721036,78.3694632 L310.064011,78.3694632 C309.880414,78.3694632 309.791398,78.2804467 309.791398,78.0968503 L309.791398,37.9448706 L305.880238,37.9448706 C305.696642,37.9448706 305.607625,37.8558542 305.607625,37.6722578 L305.607625,35.9865089 C305.64657,35.8029124 305.735586,35.713896 305.880238,35.713896 L309.791398,35.713896 L309.791398,0.780505321 C309.819216,0.602472433 309.913796,0.507892462 310.058447,0.507892462 L310.058447,0.507892462 Z M309.891541,35.713896 L309.891541,37.9393071 L317.391177,37.9393071 L317.391177,35.713896 L309.891541,35.713896 Z M332.512845,0.563527739 L348.213121,0.563527739 L348.213121,1.21446048 C348.213121,6.13818253 349.119976,9.88800023 350.928122,12.45835 C355.634867,20.7869511 357.993802,25.2822815 357.993802,25.9332142 L358.155145,25.9332142 C358.155145,25.5326402 360.942472,20.0303113 366.52269,9.41510037 C367.212568,6.73348 367.557507,4.3467266 367.557507,2.24371312 L367.557507,0.563527739 L382.334236,0.563527739 L382.334236,0.674798294 C382.334236,7.99083727 381.032371,13.4764756 378.423076,17.1372769 C377.844469,18.2611095 373.660696,24.8538898 365.871758,36.915618 C367.501871,39.5249125 368.314146,40.9157944 368.314146,41.0993908 L363.479441,41.0993908 L363.479441,43.3248019 L369.671647,43.3248019 C370.105602,43.7587571 372.89293,48.248524 378.039193,56.7996661 L378.039193,66.5803479 L380.648487,66.5803479 L380.648487,72.611212 L374.890236,72.611212 L374.890236,74.4583032 L380.648487,74.4583032 L380.648487,78.3694632 L363.101121,78.3694632 L363.101121,56.7996661 L361.142759,56.7996661 C358.717061,51.6200218 357.504212,48.8660756 357.504212,48.543391 L357.34287,48.543391 C356.652992,50.357101 355.384508,53.1054837 353.537417,56.7996661 L353.537417,67.5038935 L348.213121,67.5038935 L348.213121,78.2637561 C345.5315,78.336082 343.556448,78.3750267 342.293527,78.3750267 L332.240232,78.3750267 L330.938367,78.2637561 L330.938367,65.5455317 L334.471207,65.5455317 L334.471207,54.4073492 L343.489686,54.4073492 L343.489686,52.4489874 L339.305913,52.4489874 L339.305913,44.8992803 L344.958457,44.8992803 C345.214379,44.6099768 346.772167,42.1620246 349.63182,37.5665507 L349.63182,37.2939379 C341.158567,24.6146582 336.535276,17.6435579 335.778636,16.3750736 C333.603297,12.9701946 332.518409,7.82949497 332.518409,0.947411153 L332.512845,0.563527739 L332.512845,0.563527739 Z" id="Shape"></path>
            </g>
        </g>
    </g>
</svg>