<?xml version="1.0" encoding="UTF-8"?>
<svg width="98px" height="77px" viewBox="0 0 98 77" version="1.1" xmlns="http://www.w3.org/2000/svg" xmlns:xlink="http://www.w3.org/1999/xlink">
    <!-- Generator: Sketch 43.2 (39069) - http://www.bohemiancoding.com/sketch -->
    <title>Logo</title>
    <desc>Created with Sketch.</desc>
    <defs></defs>
    <g id="Page-1" stroke="none" stroke-width="1" fill="none" fill-rule="evenodd">
        <g id="Logo" transform="translate(-0.673902, -0.356979)" fill-rule="nonzero" fill="#158E1A">
            <path d="M97.8114252,1.26690189 L97.8114252,76.7620553 L1.51188292,76.7620553 L1.51188292,1.26690189 L97.8114252,1.26690189 L97.8114252,1.26690189 Z M98.3733817,0.704945407 L0.949926435,0.704945407 L0.949926435,77.3250117 L98.3733817,77.3250117 L98.3733817,0.704945407 L98.3733817,0.704945407 Z M10.0442221,13.8729256 C7.58441264,13.8729256 5.58256767,11.8720806 5.58256767,9.41127116 C5.58256767,6.95146166 7.58441264,4.94961669 10.0442221,4.94961669 C12.5040317,4.94961669 14.5058766,6.95046174 14.5058766,9.41127116 C14.5068765,11.8710807 12.5050316,13.8729256 10.0442221,13.8729256 L10.0442221,13.8729256 Z M10.0442221,5.51157317 C7.89438864,5.51157317 6.14452415,7.26143765 6.14452415,9.41127116 C6.14452415,11.5621046 7.89438864,13.3109692 10.0442221,13.3109692 C12.1950556,13.3109692 13.9439201,11.5621046 13.9439201,9.41127116 C13.9439201,7.26043773 12.1950556,5.51157317 10.0442221,5.51157317 L10.0442221,5.51157317 Z M40.0908952,49.8311409 C34.0443635,49.8311409 29.1247445,44.9125218 29.1247445,38.8649902 C29.1247445,32.8184584 34.0433636,27.8998394 40.0908952,27.8998394 C46.137427,27.8998394 51.057046,32.8184584 51.057046,38.8649902 C51.057046,44.9125218 46.137427,49.8311409 40.0908952,49.8311409 L40.0908952,49.8311409 Z M40.0908952,28.4627958 C34.3543395,28.4627958 29.6877009,33.1294344 29.6877009,38.8659901 C29.6877009,44.6025459 34.3543395,49.2691845 40.0908952,49.2691845 C45.8264511,49.2691845 50.4930897,44.6025459 50.4930897,38.8659901 C50.4950895,33.1294344 45.827451,28.4627958 40.0908952,28.4627958 L40.0908952,28.4627958 Z M83.1915574,62.9971213 C82.0456461,62.9971213 81.1107186,62.0631936 81.1107186,60.9162825 C81.1107186,59.7693713 82.0456461,58.8344437 83.1915574,58.8344437 C84.3384686,58.8344437 85.2733962,59.7693713 85.2733962,60.9162825 C85.2733962,62.0631936 84.3384686,62.9971213 83.1915574,62.9971213 L83.1915574,62.9971213 Z M83.1915574,59.3984 C82.3536223,59.3984 81.672675,60.0793473 81.672675,60.9172824 C81.672675,61.7552175 82.3536223,62.4371647 83.1915574,62.4371647 C84.0294925,62.4371647 84.7114397,61.7552175 84.7114397,60.9172824 C84.7114397,60.0793473 84.0294925,59.3984 83.1915574,59.3984 L83.1915574,59.3984 Z M13.9519195,73.3333209 L4.79562861,73.3333209 L4.79562861,66.9648141 L13.9519195,66.9648141 L13.9519195,73.3333209 L13.9519195,73.3333209 Z M5.35758509,72.7723643 L13.389963,72.7723643 L13.389963,67.5277705 L5.35758509,67.5277705 L5.35758509,72.7723643 L5.35758509,72.7723643 Z M20.2234338,71.6104543 L19.6614774,71.6104543 L14.8998461,71.6104543 L14.8998461,73.3343208 L19.6614774,73.3343208 L20.2234338,73.3343208 L24.9850651,73.3343208 L24.9850651,71.6104543 L20.2234338,71.6104543 Z M19.6604774,72.7723643 L15.4608027,72.7723643 L15.4608027,72.1724108 L19.6604774,72.1724108 L19.6604774,72.7723643 Z M24.4221087,72.7723643 L20.2234338,72.7723643 L20.2234338,72.1724108 L24.4221087,72.1724108 L24.4221087,72.7723643 Z M92.6848222,66.1738753 L86.0513359,66.1738753 L86.0513359,40.2028866 L92.6848222,40.2028866 L92.6848222,66.1738753 L92.6848222,66.1738753 Z M86.6132924,65.6129187 L92.1228657,65.6129187 L92.1228657,40.765843 L86.6132924,40.765843 L86.6132924,65.6129187 L86.6132924,65.6129187 Z M78.3169349,58.8384434 C77.9769612,58.6034616 77.5089975,58.6854552 77.2730158,59.0254289 C77.037034,59.3664025 77.1200276,59.8333663 77.4600013,60.0693481 C77.7999749,60.3063297 78.2669388,60.2223362 78.5029205,59.8833625 C78.7409021,59.5423889 78.6559087,59.075425 78.3169349,58.8384434 Z M75.965117,62.2121821 C75.6251434,61.9762004 75.1581795,62.059194 74.9211979,62.3991676 C74.6842162,62.7381414 74.7682097,63.2061051 75.1081834,63.4430868 C75.4481571,63.6790685 75.9151209,63.5960749 76.1521026,63.2571012 C76.3870844,62.9161276 76.3040908,62.4501637 75.965117,62.2121821 Z M77.1400261,60.5263127 C76.8000524,60.2903309 76.3330885,60.3733245 76.0971068,60.7132982 C75.8601252,61.0532719 75.9441187,61.5202357 76.2830924,61.7572173 C76.6230661,61.9931991 77.0900299,61.9092056 77.3260117,61.5702318 C77.5629933,61.2302582 77.4809996,60.7622944 77.1400261,60.5263127 Z M91.6439028,50.8920588 L91.6439028,50.3501007 C91.6439028,50.1311177 91.4669165,49.9541314 91.2479335,49.9541314 L90.3999992,49.9541314 L90.3999992,41.7247687 L89.8380427,41.7247687 L89.8380427,49.9541314 L88.9901083,49.9541314 C88.7701254,49.9541314 88.594139,50.1321176 88.594139,50.3501007 L88.594139,50.8920588 L89.8380427,50.8920588 L89.8380427,51.0360476 L88.594139,51.0360476 L88.594139,51.4800132 L89.8380427,51.4800132 L89.8380427,51.7649912 L88.594139,51.7649912 L88.594139,52.9638983 L89.8380427,52.9638983 L89.8380427,53.4128636 L88.594139,53.4128636 L88.594139,54.6127706 L89.8380427,54.6127706 L89.8380427,54.8987485 L88.594139,54.8987485 L88.594139,55.3427141 L89.8380427,55.3427141 L89.8380427,55.485703 L88.594139,55.485703 L88.594139,56.028661 C88.594139,56.247644 88.7711253,56.4246303 88.9901083,56.4246303 L89.8380427,56.4246303 L89.8380427,64.653993 L90.3999992,64.653993 L90.3999992,56.4246303 L91.2479335,56.4246303 C91.4669165,56.4246303 91.6439028,56.2466441 91.6439028,56.028661 L91.6439028,55.485703 L90.4009991,55.485703 L90.4009991,55.3427141 L91.6439028,55.3427141 L91.6439028,54.8987485 L90.4009991,54.8987485 L90.4009991,54.6127706 L91.6439028,54.6127706 L91.6439028,53.4128636 L90.4009991,53.4128636 L90.4009991,52.9638983 L91.6439028,52.9638983 L91.6439028,51.7649912 L90.4009991,51.7649912 L90.4009991,51.4800132 L91.6439028,51.4800132 L91.6439028,51.0360476 L90.4009991,51.0360476 L90.4009991,50.8920588 L91.6439028,50.8920588 L91.6439028,50.8920588 Z M88.2651645,42.2857253 L88.2651645,41.7237688 L87.1932475,41.7237688 L87.1932475,42.2857253 L88.2651645,42.2857253 L88.2651645,42.2857253 Z M88.2651645,64.6549929 L88.2651645,64.0920365 L87.1932475,64.0920365 L87.1932475,64.6549929 L88.2651645,64.6549929 L88.2651645,64.6549929 Z M88.2651645,53.4698591 L88.2651645,52.9079027 L87.1932475,52.9079027 L87.1932475,53.4698591 L88.2651645,53.4698591 L88.2651645,53.4698591 Z M88.2651645,50.6740757 L88.2651645,50.1121192 L87.1932475,50.1121192 L87.1932475,50.6740757 L88.2651645,50.6740757 L88.2651645,50.6740757 Z M88.2651645,47.8782922 L88.2651645,47.3163357 L87.1932475,47.3163357 L87.1932475,47.8782922 L88.2651645,47.8782922 L88.2651645,47.8782922 Z M88.2651645,45.0815088 L88.2651645,44.5195523 L87.1932475,44.5195523 L87.1932475,45.0815088 L88.2651645,45.0815088 L88.2651645,45.0815088 Z M88.2651645,56.2666425 L88.2651645,55.7046861 L87.1932475,55.7046861 L87.1932475,56.2666425 L88.2651645,56.2666425 L88.2651645,56.2666425 Z M88.2651645,59.062426 L88.2651645,58.5004696 L87.1932475,58.5004696 L87.1932475,59.062426 L88.2651645,59.062426 L88.2651645,59.062426 Z M88.2651645,61.8582095 L88.2651645,61.296253 L87.1932475,61.296253 L87.1932475,61.8582095 L88.2651645,61.8582095 L88.2651645,61.8582095 Z M40.0908952,38.2390387 C39.6619285,38.2390387 39.3149553,38.5860118 39.3149553,39.0149786 C39.3149553,39.4429454 39.6619285,39.7899186 40.0908952,39.7899186 C40.5188621,39.7899186 40.8658352,39.4429454 40.8658352,39.0149786 C40.8658352,38.5860118 40.519862,38.2390387 40.0908952,38.2390387 Z M10.0442221,8.63533126 C9.61625529,8.63533126 9.26928216,8.98230438 9.26928216,9.41027124 C9.26928216,9.83923802 9.61625529,10.1852112 10.0442221,10.1852112 C10.4731889,10.1852112 10.8191621,9.8382381 10.8191621,9.41027124 C10.8201621,8.98230438 10.4731889,8.63533126 10.0442221,8.63533126 Z M7.68940451,58.2544886 C6.0935281,58.2544886 4.79462869,59.553388 4.79462869,61.1492644 C4.79462869,62.7451408 6.0935281,64.0440402 7.68940451,64.0440402 C9.28528092,64.0440402 10.5841803,62.7451408 10.5841803,61.1492644 C10.5841803,59.553388 9.28528092,58.2544886 7.68940451,58.2544886 Z M7.68940451,63.4810838 C6.40350409,63.4810838 5.35758509,62.4351648 5.35758509,61.1492644 C5.35758509,59.9593566 6.25451563,58.9744328 7.40842627,58.8354436 L7.40842627,61.1492644 L7.97038275,61.1492644 L7.97038275,58.8354436 C9.12329347,58.9754328 10.0212239,59.9593566 10.0212239,61.1492644 C10.0212239,62.4351648 8.97530493,63.4810838 7.68940451,63.4810838 Z M94.0737147,20.8493854 C94.0737147,17.7876225 92.9797994,14.8188524 90.995953,12.4930325 C89.1000998,10.2732044 86.5063007,8.7613215 83.6605211,8.2073644 C83.7935108,6.94746197 83.8905033,6.02153368 83.8905033,6.02153368 L81.6546764,5.78555195 C81.6546764,5.78555195 81.556684,6.71148024 81.4246942,7.97138267 C81.3477002,7.97038275 81.2707062,7.96838291 81.1927122,7.96838291 C78.1249498,7.96838291 75.1541798,9.06429803 72.8253602,11.0551439 C70.6915254,12.8790026 69.2146398,15.3488113 68.6146863,18.064601 C67.5447691,16.6037142 66.3558612,15.2128219 65.0499623,13.906923 C58.3844785,7.24043928 49.520165,3.56872363 40.0928951,3.56872363 C30.6656252,3.56872363 21.8013116,7.24043928 15.1348279,13.906923 C8.46734426,20.5744067 4.79562861,29.4377203 4.79562861,38.8659901 C4.79562861,48.29426 8.46734426,57.1575736 15.133828,63.8240573 C21.8003117,70.490541 30.6646252,74.1622567 40.0918952,74.1622567 C49.5191651,74.1622567 58.3834786,70.490541 65.0489624,63.8240573 C71.7154461,57.1575736 75.3881617,48.29426 75.3881617,38.8659901 C75.3881617,36.5321708 75.1611793,34.231349 74.7222133,31.9915225 C75.9621173,32.7154664 77.3040134,33.2194274 78.7169039,33.4934062 C78.8118966,34.4443325 79.1898673,35.9792137 79.7598232,38.2510377 C80.252785,40.210886 80.8107418,42.4327139 81.1297171,44.2735713 C81.7286707,47.7273039 81.2117107,49.8351406 80.8347399,51.3750214 C80.8087419,51.483013 80.782744,51.5880049 80.7587458,51.689997 C80.4287714,53.0628907 80.1637919,54.1618056 77.9309648,57.422553 L77.464001,57.0975782 L73.9062765,62.200183 L72.3293986,62.3341727 L69.199641,66.823825 L73.9782709,70.154567 L77.1080285,65.6659146 L76.6880611,64.1400328 L80.2457855,59.037428 L79.7758219,58.7094534 C82.0806434,55.3467138 82.5176096,53.9928186 82.9445765,52.2149563 C82.9675748,52.115964 82.9935727,52.0149718 83.0185708,51.9099799 C83.4185398,50.2751066 84.023493,47.8062977 83.3445456,43.8896011 C83.0115713,41.9657501 82.4426154,39.7019254 81.9396544,37.7030802 C81.5636835,36.2031963 81.1757135,34.6643155 81.0177258,33.7273881 C81.0757213,33.728388 81.1327168,33.7303878 81.1917123,33.7303878 C88.2941622,33.7313877 94.0737147,27.9528353 94.0737147,20.8493854 Z M76.0771084,64.0330411 L76.4960759,65.5589229 L73.8392817,69.3706277 L69.9835803,66.6828359 L72.6403745,62.8711311 L74.2172524,62.7371415 L77.6039901,57.8795176 L79.4638461,59.1764172 L76.0771084,64.0330411 Z M40.0908952,73.5993003 C20.9383785,73.5993003 5.35758509,58.017507 5.35758509,38.8659901 C5.35758509,19.7144733 20.9393784,4.13267995 40.0908952,4.13267995 C59.2424121,4.13267995 74.8242054,19.7144733 74.8242054,38.8659901 C74.8242054,58.017507 59.243412,73.5993003 40.0908952,73.5993003 Z M69.0626516,18.6915525 C70.1025711,12.796009 75.1831776,8.53033939 81.1917123,8.53033939 C81.2497078,8.53033939 81.3067034,8.53133931 81.3646989,8.53233923 C81.2227099,9.87123554 81.0547229,11.4571127 80.923733,12.7050161 C76.5530715,12.8470051 73.0403435,16.4447265 73.0403435,20.8493854 C73.0403435,24.5640977 75.5161518,27.7728492 79.0828756,28.7237755 C78.9008897,30.1236671 78.6979054,31.8005373 78.6919059,32.9154509 C77.2200199,32.6124744 75.8341272,32.0475181 74.5632256,31.2345811 C73.5753021,26.7309299 71.7134463,22.481259 69.0626516,18.6915525 Z M79.3188573,26.870919 C79.2868598,27.1768953 79.2268644,27.6258606 79.1578698,28.1478202 C79.1578698,28.1518198 79.1568699,28.1578194 79.1558699,28.1618191 C75.8741241,27.2528895 73.6023,24.2841194 73.6023,20.8493854 C73.6023,16.7747009 76.83105,13.4409591 80.8637377,13.2689724 C80.807742,13.7959316 80.7627455,14.2288981 80.7337477,14.5068765 C80.7037501,14.7928544 80.5017657,16.5437188 80.2667839,18.5705618 C79.9098116,21.6683219 79.464846,25.5210236 79.3188573,26.870919 Z M81.3966964,37.8460691 C81.8956578,39.8329152 82.460614,42.0857408 82.7905885,43.9865936 C83.4495374,47.7862993 82.8625829,50.1861134 82.473613,51.7759903 L82.4676135,51.7979886 C82.4446153,51.895981 82.4206171,51.9899737 82.3986188,52.0829665 C81.9886506,53.7928341 81.5676832,55.0967331 79.3388558,58.352481 L78.4159272,57.7095308 C80.6887512,54.3857882 80.96273,53.2458765 81.3047035,51.8199869 C81.3257019,51.7339936 81.3477002,51.6450005 81.3696985,51.5540075 L81.3816976,51.5070111 C81.7706674,49.920134 82.3026262,47.7463024 81.6836742,44.1765788 C81.3606992,42.3127232 80.8007426,40.080896 80.3057809,38.1130484 C79.6618308,35.5552465 79.271861,33.9433713 79.2548623,33.1174353 C79.2308641,31.9065291 79.5108425,29.7756941 79.7158266,28.2208145 L79.7198263,28.1968164 C79.7868211,27.6818562 79.8458165,27.2378906 79.878814,26.9309144 C80.0248026,25.5870185 80.4667684,21.7513155 80.8217409,18.6695542 L80.8257406,18.6355568 C81.0807209,16.4287277 81.2637067,14.8448504 81.2927045,14.5648721 C81.4366933,13.2019776 81.9756516,8.10637222 82.1546377,6.40250417 L83.2725511,6.52049503 C83.0925651,8.22436308 82.5546067,13.3189685 82.4106179,14.681863 C82.3796203,14.97884 82.1776359,16.7327042 81.9426541,18.7635469 L81.9266554,18.8935368 C81.5756825,21.9373011 81.1387164,25.7260077 80.9947275,27.051905 C80.9597302,27.3788797 80.8997349,27.8368442 80.8297403,28.3678031 C80.6407549,29.8016921 80.355777,31.9695242 80.3777753,33.095437 C80.3937741,33.8523784 80.8797364,35.7892284 81.3956965,37.8390696 L81.3966964,37.8460691 Z M83.1005645,13.5039542 C86.4133079,14.3628877 88.7811245,17.3906532 88.7811245,20.8493854 C88.7811245,24.9680664 85.48238,28.3288061 81.388697,28.433798 C81.4586916,27.9018392 81.518687,27.4428747 81.5546842,27.1129003 C81.7006729,25.7700043 82.1436386,21.9223023 82.5006109,18.8295418 C82.744592,16.7127057 82.938577,15.0398353 82.9685747,14.7418583 C82.9995723,14.4648798 83.0445688,14.0319133 83.1005645,13.5039542 Z M80.9407317,33.0854378 C80.9217332,32.1355113 81.1357166,30.3736478 81.3147028,28.9977543 C85.7523591,28.9317594 89.343081,25.3030405 89.343081,20.8493854 C89.343081,17.1066752 86.7622809,13.8309289 83.15856,12.937998 C83.2915497,11.6900947 83.4585367,10.1062173 83.5995258,8.76832096 C89.3620795,9.90723276 93.5097583,14.9318436 93.5097583,20.8493854 C93.5097583,27.6418593 87.9841863,33.1694313 81.1907124,33.1694313 C81.1077188,33.1694313 81.0257251,33.1664315 80.9427316,33.1644317 C80.9427316,33.1374337 80.9417316,33.1094359 80.9407317,33.0854378 Z M40.0908952,6.93846267 C31.5625557,6.93846267 23.5451766,10.2592055 17.5146436,16.2897385 C11.4841106,22.3202715 8.16336781,30.3376506 8.16336781,38.8659901 C8.16336781,47.3943296 11.4841106,55.4127087 17.5146436,61.4422417 C23.5451766,67.4727747 31.5625557,70.7945175 40.0908952,70.7945175 C48.6192348,70.7945175 56.6366139,67.4737746 62.6671469,61.4422417 C68.6976799,55.4127087 72.0184227,47.3943296 72.0184227,38.8659901 C72.0184227,30.3376506 68.6986798,22.3202715 62.6671469,16.2897385 C56.6376138,10.2592055 48.6192348,6.93846267 40.0908952,6.93846267 Z M40.0908952,70.2315611 C22.7962346,70.2315611 8.72532429,56.1606508 8.72532429,38.8659901 C8.72532429,21.5713295 22.7962346,7.50041915 40.0908952,7.50041915 C57.3865558,7.50041915 71.4564662,21.5713295 71.4564662,38.8659901 C71.4564662,56.1606508 57.3865558,70.2315611 40.0908952,70.2315611 Z" id="Shape"></path>
        </g>
    </g>
</svg>