<?xml version="1.0" encoding="UTF-8"?>
<svg width="387px" height="79px" viewBox="0 0 387 79" version="1.1" xmlns="http://www.w3.org/2000/svg" xmlns:xlink="http://www.w3.org/1999/xlink">
    <!-- Generator: Sketch 43.2 (39069) - http://www.bohemiancoding.com/sketch -->
    <title>Logotype</title>
    <desc>Created with Sketch.</desc>
    <defs></defs>
    <g id="Page-1" stroke="none" stroke-width="1" fill="none" fill-rule="evenodd">
        <g id="Logotype" transform="translate(-1.519984, -4.781117)" fill-rule="nonzero" fill="#000000">
            <path d="M30.1209392,5.56352774 L43.2174835,5.56352774 C43.4010799,6.32573104 47.6571786,20.4849091 55.9857796,48.0521891 L58.3224613,48.0521891 L58.3224613,73.6444167 L52.94253,73.6444167 L52.94253,75.6528502 L58.3224613,75.6528502 L58.3224613,81.1384885 L43.8684162,81.1384885 L43.8684162,65.382578 L26.1541439,65.382578 L26.1541439,72.0643748 L18.9827566,72.0643748 L18.9827566,83.3638996 L5.8361406,83.3638996 L5.8361406,82.6016963 L6.87095676,82.6016963 L6.87095676,72.0643748 L12.2508881,72.0643748 L12.2508881,50.2776002 L16.7072738,50.2776002 L30.1209392,5.56352774 Z M36.2630738,27.4560094 L36.2630738,27.6173517 C35.1392412,33.7761769 32.9694654,43.517914 29.7426193,56.8481264 L41.9100545,56.8481264 L41.9100545,48.0466256 L40.8808018,48.0466256 C37.9822039,35.4396717 36.5356867,28.579842 36.5356867,27.4560094 L36.2630738,27.4560094 L36.2630738,27.4560094 Z M13.0631631,46.3664402 L14.2593216,46.3664402 C14.2593216,46.6946883 14.4206639,46.9617376 14.748912,47.1787152 C14.7878567,46.8504671 14.9658896,46.5834178 15.2941378,46.3664402 L16.2176834,46.3664402 L16.2176834,46.4777107 C15.6001318,47.3456211 15.2941378,47.8352115 15.2941378,47.9464821 C15.4387895,48.2747302 15.7837282,48.7977018 16.3289539,49.5209604 L16.3289539,49.7935733 L15.8337999,49.7935733 C15.3275189,49.7935733 14.9658896,49.431944 14.748912,48.7086854 C14.2036863,49.431944 13.8976923,49.7935733 13.8253664,49.7935733 L13.1688702,49.7935733 C12.9852737,49.7935733 12.8962573,49.7045568 12.8962573,49.5209604 C13.0075279,49.5209604 13.3691572,49.03137 13.9811452,48.0521891 L13.9811452,47.8352115 C13.3691572,46.9283565 13.0631631,46.438766 13.0631631,46.3664402 L13.0631631,46.3664402 Z M2.03068762,47.9409185 L12.2453246,47.9409185 L12.2453246,50.2776002 L2.03068762,50.2776002 L2.03068762,47.9409185 Z M58.7007812,49.6266674 L61.471418,49.6266674 L61.471418,50.2776002 L59.7856691,52.3973042 L61.3601474,52.3973042 C61.5047992,52.4362489 61.577125,52.5252654 61.577125,52.6699171 L61.577125,52.94253 C61.577125,53.1261264 61.5047992,53.2151428 61.3601474,53.2151428 L58.5895106,53.2151428 L58.5895106,52.5642101 L60.2752595,50.444506 L58.7007812,50.444506 L58.7007812,49.6266674 L58.7007812,49.6266674 Z M38.6498272,53.048237 L39.4120305,53.048237 L39.4120305,54.3501025 L40.8808018,53.048237 L41.6430051,53.048237 L41.6430051,53.2095793 L40.5024819,54.5114448 C41.3703923,55.7409844 41.8043474,56.4308619 41.8043474,56.5755136 L40.9865089,56.5755136 C40.914183,56.5755136 40.513609,56.1026137 39.7903504,55.1623775 C39.6790798,55.1623775 39.5566822,55.2903387 39.4120305,55.5406974 L39.4120305,56.5755136 L38.6498272,56.5755136 L38.6498272,53.048237 L38.6498272,53.048237 Z M58.973394,54.2443955 L60.5478724,54.2443955 C61.3434569,54.355666 61.7440308,54.7506765 61.7440308,55.4405539 L61.365711,56.0914867 C61.6216332,56.3807901 61.7440308,56.9037617 61.7440308,57.665965 L61.7440308,57.7772356 L60.9261923,57.7772356 C60.8538664,56.9093252 60.7259053,56.4753701 60.5478724,56.4753701 L59.6243268,56.4753701 L59.6243268,57.7772356 L58.973394,57.7772356 C58.7897976,57.7772356 58.7007812,57.6882191 58.7007812,57.5046227 L58.7007812,54.5170083 C58.7341623,54.3334119 58.8287423,54.2443955 58.973394,54.2443955 L58.973394,54.2443955 Z M59.6243268,55.0065988 L59.6243268,55.8188738 L60.5478724,55.8188738 C60.7314688,55.8188738 60.8204852,55.7298574 60.8204852,55.5462609 L60.8204852,55.0010352 L59.6243268,55.0010352 L59.6243268,55.0065988 Z M58.7007812,58.8064882 L61.1988051,58.8064882 C61.3824015,58.8454329 61.471418,58.9344493 61.471418,59.0791011 L61.471418,59.3517139 C61.471418,59.5353103 61.3824015,59.6243268 61.1988051,59.6243268 L60.4366018,59.6243268 L60.4366018,62.3949636 L59.5130562,62.3949636 L59.5130562,59.6243268 L58.7007812,59.6243268 C58.5171848,59.6243268 58.4281683,59.5353103 58.4281683,59.3517139 L58.4281683,59.0791011 C58.4615495,58.9010682 58.5561295,58.8064882 58.7007812,58.8064882 Z M58.4281683,63.4242162 L59.0791011,63.4242162 C59.3350233,63.4242162 59.6020727,64.1641654 59.8913761,65.6496273 L60.0026467,65.6496273 C60.4366018,64.3477618 60.6535794,63.6022491 60.6535794,63.4242162 L61.577125,63.4242162 C60.8872476,65.7775885 60.4532924,66.9570563 60.2752595,66.9570563 L59.5130562,66.9570563 L58.4281683,63.4242162 Z M30.1209392,66.4118306 L30.1209392,67.1183986 C30.1209392,67.2630504 29.4143712,67.5523538 28.0012351,67.986309 L28.0012351,68.1476513 L30.1209392,68.9098546 L30.1209392,69.7221296 L26.8050766,68.5259712 L26.8050766,67.6024256 L30.1209392,66.4118306 Z M9.7473006,67.9918725 L10.1812558,67.9918725 C10.4705592,67.9918725 10.9434591,69.188031 11.5943918,71.5803479 L10.8321885,71.5803479 C10.8321885,71.508022 10.7431721,71.2354092 10.5595756,70.7680728 L9.36898071,70.7680728 C9.29665485,71.3132986 9.16869371,71.5803479 8.99066083,71.5803479 L8.33416455,71.5803479 C9.09636785,69.188031 9.56370418,67.9918725 9.7473006,67.9918725 Z M60.163989,67.9918725 L60.5423089,67.9918725 C61.4102192,67.9918725 61.9387543,68.6094241 62.1167872,69.8389637 C61.8608649,71.0685033 61.3045122,71.6860549 60.4310383,71.6860549 C59.2014987,71.4690773 58.5839471,70.8515258 58.5839471,69.8389637 C58.773107,68.6038606 59.2960786,67.9918725 60.163989,67.9918725 Z M59.5130562,69.7276932 L59.5130562,69.8389637 C59.5130562,70.3118636 59.7300338,70.6734929 60.163989,70.9238516 L60.5423089,70.9238516 C60.9818275,70.6679293 61.1988051,70.3063 61.1988051,69.8389637 L61.1988051,69.7276932 C61.1264793,69.0378157 60.8204852,68.692877 60.2752595,68.692877 C59.7689785,68.8764734 59.5130562,69.2214121 59.5130562,69.7276932 Z M9.9086429,69.188031 C9.72504649,69.7666378 9.63603004,70.0781954 9.63603004,70.1115766 L10.2925263,70.1115766 L10.0199135,69.188031 L9.9086429,69.188031 L9.9086429,69.188031 Z M43.8684162,82.0620342 L61.3601474,82.0620342 L61.3601474,83.3638996 L43.8684162,83.3638996 L43.8684162,82.0620342 Z M65.5606109,5.56352774 L80.5543181,5.56352774 L80.5543181,46.6946883 L73.4886379,46.6946883 L73.4886379,48.8700277 L80.5543181,48.8700277 L80.5543181,56.5866406 C80.5543181,63.6133762 81.8061119,67.7081326 84.3041358,68.8653464 C85.5726202,69.6609308 87.1470985,70.0615048 89.0331344,70.0615048 L93.6508624,70.0615048 L93.6508624,56.4252983 L97.7233647,56.4252983 L97.7233647,5.56352774 L112.611365,5.56352774 L112.611365,53.3764851 L107.231434,53.3764851 L107.231434,56.85369 L112.611365,56.85369 C112.539039,57.9775226 112.500094,58.8287423 112.500094,59.4073492 L112.500094,74.6736693 L104.677774,74.6736693 L104.677774,83.3694632 L69.905726,83.3694632 L69.905726,72.6096005 L66.7011341,72.6096005 L66.7011341,40.4468467 L65.5606109,40.4468467 L65.5606109,5.56352774 L65.5606109,5.56352774 Z M80.5543181,46.6946883 L89.0275709,46.6946883 L89.0275709,48.8700277 L80.5543181,48.8700277 L80.5543181,46.6946883 Z M123.05967,5.66923477 L146.749171,5.66923477 C156.602179,5.66923477 163.372992,9.01847847 167.067174,15.7225294 C170.255076,20.9411184 171.846245,29.592404 171.846245,41.6930769 L174.182926,41.6930769 L174.182926,60.2752595 L151.144358,60.2752595 L151.144358,58.1555555 L158.371381,58.1555555 L158.371381,41.6930769 L156.251677,41.6930769 L156.251677,34.9000095 C156.251677,27.2557224 154.549237,22.3876356 151.144358,20.2846221 C149.152615,19.1607895 145.948023,18.5988732 141.525019,18.5988732 L138.320427,18.5988732 L138.320427,41.3091935 L140.495766,41.3091935 L140.495766,60.269696 L124.956833,60.269696 L124.956833,42.7223295 L123.054107,42.7223295 L123.05967,5.66923477 L123.05967,5.66923477 Z M116.160896,60.2752595 L123.170941,60.2752595 L123.170941,62.7176482 L140.50133,62.7176482 L140.50133,67.8249667 L151.149922,67.8249667 L151.149922,62.7176482 L174.18849,62.7176482 L174.18849,67.8249667 L158.376944,67.8249667 L158.376944,81.6781507 L140.50133,81.6781507 L140.50133,83.3638996 L123.332283,83.3638996 C123.148687,83.3638996 123.05967,83.2748832 123.05967,83.0912868 L123.05967,62.7176482 L116.160896,62.7176482 L116.160896,60.2752595 L116.160896,60.2752595 Z M140.50133,60.2752595 L151.149922,60.2752595 L151.149922,62.7176482 L140.50133,62.7176482 L140.50133,60.2752595 Z M174.18849,60.2752595 L189.45481,60.2752595 L189.45481,62.7176482 L174.18849,62.7176482 L174.18849,60.2752595 L174.18849,60.2752595 Z M183.818956,5.50789246 L198.489979,5.50789246 C198.634631,5.54683716 198.706957,5.6358536 198.706957,5.78050532 L198.706957,43.5958034 C198.706957,43.7793998 198.634631,43.8684162 198.489979,43.8684162 L196.754158,43.8684162 L196.754158,83.0968503 C196.754158,83.2804467 196.665142,83.3694632 196.481546,83.3694632 L183.818956,83.3694632 C183.63536,83.3694632 183.546344,83.2804467 183.546344,83.0968503 L183.546344,42.9448706 L179.635184,42.9448706 C179.451587,42.9448706 179.362571,42.8558542 179.362571,42.6722578 L179.362571,40.9865089 C179.401515,40.8029124 179.490532,40.713896 179.635184,40.713896 L183.546344,40.713896 L183.546344,5.78050532 C183.585288,5.60247243 183.674305,5.50789246 183.818956,5.50789246 L183.818956,5.50789246 Z M183.657614,40.713896 L183.657614,42.9393071 L191.15725,42.9393071 L191.15725,40.713896 L183.657614,40.713896 Z M234.580584,5.61359949 C245.735457,5.61359949 253.07375,9.50806891 256.584336,17.2970077 C258.576079,21.1024607 259.57195,28.4351903 259.57195,39.3007599 L259.57195,39.6790798 L253.813699,39.6790798 L253.813699,42.2883743 L259.57195,42.2883743 L259.57195,70.3786259 L255.766497,70.3786259 L255.766497,80.4819923 L248.21679,80.4819923 L248.21679,83.3638996 L221.812287,83.3638996 L221.812287,80.4819923 L218.607695,80.4819923 L218.607695,70.3786259 L211.814628,70.3786259 L211.814628,62.4450353 L215.837059,62.4450353 L215.837059,58.2612625 L211.814628,58.2612625 L211.814628,62.4450353 L202.195289,62.4450353 L202.195289,58.2612625 L209.477946,58.2612625 C209.405621,51.9244044 209.366676,47.0674447 209.366676,43.7015104 L209.366676,37.0753489 C209.366676,24.7576984 211.447435,16.5181139 215.614518,12.3565951 C219.419971,7.8612647 225.745702,5.61359949 234.580584,5.61359949 L234.580584,5.61359949 Z M225.072515,32.4019856 L225.233857,32.4019856 L225.072515,32.6189631 L225.072515,39.6846434 L219.258628,39.6846434 L219.258628,42.2939379 L225.072515,42.2939379 C225.000189,53.4877557 224.961244,61.9276273 224.961244,67.6135526 L224.961244,70.3841894 L237.946518,70.3841894 L237.946518,66.0947095 L243.921747,66.0947095 L243.921747,65.9278037 C243.921747,60.6368888 243.888365,53.2707781 243.810476,43.8127809 C243.810476,43.4122069 243.849421,42.4163355 243.921747,40.8251665 C243.921747,30.6105296 243.326449,24.3237433 242.130291,21.970371 C240.900751,19.7227058 238.636395,18.6044368 235.337223,18.6044368 L233.434497,18.6044368 C229.484392,18.6044368 227.042004,20.3458209 226.101767,23.8230258 C225.667812,25.5199017 225.328437,28.379555 225.072515,32.4019856 L225.072515,32.4019856 Z M259.57195,39.6846434 L268.918677,39.6846434 L268.918677,42.2939379 L259.57195,42.2939379 L259.57195,39.6846434 Z M268.991003,5.83057707 L307.891189,5.83057707 L307.891189,18.7602155 L284.418665,18.7602155 L284.418665,37.1254206 L304.630961,37.1254206 L304.903574,37.2867629 L304.742232,37.5593758 C304.669906,40.1686703 304.630961,41.6875133 304.630961,42.1214685 L302.40555,42.1214685 L302.40555,42.2327391 C302.40555,43.1395941 302.316534,45.1480276 302.132937,48.2636031 L304.252641,48.2636031 C304.252641,49.7101203 304.12468,50.4389425 303.874322,50.4389425 L289.637254,50.4389425 L289.637254,53.1038723 L282.193254,53.1038723 L282.193254,54.5170083 L284.418665,54.5170083 L284.418665,61.3100757 L291.80703,61.3100757 L291.80703,62.5062341 L284.418665,62.5062341 L284.418665,81.3053944 L284.257323,82.1733047 L276.323732,82.1733047 L276.323732,83.3694632 L269.258052,83.3694632 C269.074456,83.3694632 268.985439,83.2804467 268.985439,83.0968503 L268.985439,81.1384885 L269.09671,79.8366231 L272.902163,79.8366231 L272.902163,77.8782613 L268.991003,77.8782613 L268.991003,70.4342612 L270.838094,70.4342612 L270.838094,43.0505776 L273.936979,43.0505776 L273.936979,41.0421441 L268.991003,41.0421441 L268.991003,5.83057707 L268.991003,5.83057707 Z M277.191643,61.3100757 L277.191643,62.5062341 L284.251759,62.5062341 L284.251759,61.3100757 L277.191643,61.3100757 Z M316.058447,5.50789246 L330.72947,5.50789246 C330.874122,5.54683716 330.946448,5.6358536 330.946448,5.78050532 L330.946448,43.5958034 C330.946448,43.7793998 330.874122,43.8684162 330.72947,43.8684162 L328.993649,43.8684162 L328.993649,83.0968503 C328.993649,83.2804467 328.904633,83.3694632 328.721036,83.3694632 L316.064011,83.3694632 C315.880414,83.3694632 315.791398,83.2804467 315.791398,83.0968503 L315.791398,42.9448706 L311.880238,42.9448706 C311.696642,42.9448706 311.607625,42.8558542 311.607625,42.6722578 L311.607625,40.9865089 C311.64657,40.8029124 311.735586,40.713896 311.880238,40.713896 L315.791398,40.713896 L315.791398,5.78050532 C315.819216,5.60247243 315.913796,5.50789246 316.058447,5.50789246 L316.058447,5.50789246 Z M315.891541,40.713896 L315.891541,42.9393071 L323.391177,42.9393071 L323.391177,40.713896 L315.891541,40.713896 Z M338.512845,5.56352774 L354.213121,5.56352774 L354.213121,6.21446048 C354.213121,11.1381825 355.119976,14.8880002 356.928122,17.45835 C361.634867,25.7869511 363.993802,30.2822815 363.993802,30.9332142 L364.155145,30.9332142 C364.155145,30.5326402 366.942472,25.0303113 372.52269,14.4151004 C373.212568,11.73348 373.557507,9.3467266 373.557507,7.24371312 L373.557507,5.56352774 L388.334236,5.56352774 L388.334236,5.67479829 C388.334236,12.9908373 387.032371,18.4764756 384.423076,22.1372769 C383.844469,23.2611095 379.660696,29.8538898 371.871758,41.915618 C373.501871,44.5249125 374.314146,45.9157944 374.314146,46.0993908 L369.479441,46.0993908 L369.479441,48.3248019 L375.671647,48.3248019 C376.105602,48.7587571 378.89293,53.248524 384.039193,61.7996661 L384.039193,71.5803479 L386.648487,71.5803479 L386.648487,77.611212 L380.890236,77.611212 L380.890236,79.4583032 L386.648487,79.4583032 L386.648487,83.3694632 L369.101121,83.3694632 L369.101121,61.7996661 L367.142759,61.7996661 C364.717061,56.6200218 363.504212,53.8660756 363.504212,53.543391 L363.34287,53.543391 C362.652992,55.357101 361.384508,58.1054837 359.537417,61.7996661 L359.537417,72.5038935 L354.213121,72.5038935 L354.213121,83.2637561 C351.5315,83.336082 349.556448,83.3750267 348.293527,83.3750267 L338.240232,83.3750267 L336.938367,83.2637561 L336.938367,70.5455317 L340.471207,70.5455317 L340.471207,59.4073492 L349.489686,59.4073492 L349.489686,57.4489874 L345.305913,57.4489874 L345.305913,49.8992803 L350.958457,49.8992803 C351.214379,49.6099768 352.772167,47.1620246 355.63182,42.5665507 L355.63182,42.2939379 C347.158567,29.6146582 342.535276,22.6435579 341.778636,21.3750736 C339.603297,17.9701946 338.518409,12.829495 338.518409,5.94741115 L338.512845,5.56352774 L338.512845,5.56352774 Z" id="Shape"></path>
        </g>
    </g>
</svg>